PathFileType	4	(X/Y/Z)	/Users/itak/Documents/Research/Walk-IL/dataset/trc/00080_00006.trc
DataRate	CameraRate	NumFrames	NumMarkers	Units	OrigDataRate	OrigDataStartFrame	OrigNumFrames
100.000000	100.000000	4	53	mm	100.000000	0	546
Frame#	Time	RPSI			LPSI			L3			STRN			T10			C7			CLAV			RBAK			LBAK			LSHO			LUPA			LAEL			LAOL			LWTS			LWPS			LFRA			LIFD			LHPS			LHTS			RSHO			RUPA			RAEL			RAOL			RWTS			RWPS			RFRA			RIFD			RHTS			RHPS			RBHD			LFHD			RFHD			LBHD			LHIP			RHIP			RASI			LASI			LKNE			LTHI			LANK			LTIP			LTOE			LMT1			LMT5			LHEE			RKNE			RTHI			RANK			RTIP			RTOE			RMT1			RMT5			RHEE			
		X1	Y1	Z1	X2	Y2	Z2	X3	Y3	Z3	X4	Y4	Z4	X5	Y5	Z5	X6	Y6	Z6	X7	Y7	Z7	X8	Y8	Z8	X9	Y9	Z9	X10	Y10	Z10	X11	Y11	Z11	X12	Y12	Z12	X13	Y13	Z13	X14	Y14	Z14	X15	Y15	Z15	X16	Y16	Z16	X17	Y17	Z17	X18	Y18	Z18	X19	Y19	Z19	X20	Y20	Z20	X21	Y21	Z21	X22	Y22	Z22	X23	Y23	Z23	X24	Y24	Z24	X25	Y25	Z25	X26	Y26	Z26	X27	Y27	Z27	X28	Y28	Z28	X29	Y29	Z29	X30	Y30	Z30	X31	Y31	Z31	X32	Y32	Z32	X33	Y33	Z33	X34	Y34	Z34	X35	Y35	Z35	X36	Y36	Z36	X37	Y37	Z37	X38	Y38	Z38	X39	Y39	Z39	X40	Y40	Z40	X41	Y41	Z41	X42	Y42	Z42	X43	Y43	Z43	X44	Y44	Z44	X45	Y45	Z45	X46	Y46	Z46	X47	Y47	Z47	X48	Y48	Z48	X49	Y49	Z49	X50	Y50	Z50	X51	Y51	Z51	X52	Y52	Z52	X53	Y53	Z53	

1	0	-1337.152099609375	1034.007934570312	446.6523132324219	-1351.155883789062	1025.32421875	271.7496643066406	-1340.5244140625	1084.824462890625	351.6400146484375	-1094.094970703125	1287.370849609375	349.7695617675781	-1361.079711914062	1219.61181640625	345.8855285644531	-1304.4453125	1487.246704101562	340.1508178710938	-1123.525024414062	1401.330200195312	346.2880554199219	-1366.089599609375	1349.090209960938	416.5975952148438	-1324.243408203125	1448.113647460938	239.000244140625	-1219.859375	1452.314208984375	168.4005889892578	-1233.027587890625	1324.065551757812	92.03887176513672	-1208.6748046875	1109.185668945312	76.01192474365234	-1273.49560546875	1094.379272460938	159.8693389892578	-1111.189453125	874.1963500976562	143.9889221191406	-1169.559692382812	859.5833740234375	85.11700439453125	-1185.226806640625	1000.451293945312	70.82096862792969	-1096.738647460938	688.635986328125	164.8924102783203	-1134.276489257812	780.65576171875	91.44920349121094	-1082.792236328125	793.9741821289062	138.9430694580078	-1243.504272460938	1454.053466796875	517.2550048828125	-1256.652465820312	1386.714111328125	581.158203125	-1290.425170898438	1122.8203125	613.4202270507812	-1269.489501953125	1099.690673828125	517.5367431640625	-1143.845703125	871.5025634765625	583.8668212890625	-1217.0234375	855.8546142578125	630.3712158203125	-1277.50830078125	1042.758911132812	621.44384765625	-1135.529174804688	684.023681640625	567.833740234375	-1119.143920898438	771.9386596679688	584.7498168945312	-1176.613647460938	768.3709106445312	635.4596557617188	-1273.10595703125	1665.994995117188	276.328369140625	-1104.241943359375	1702.524047851562	405.6363830566406	-1099.221435546875	1705.305541992188	279.9004516601562	-1269.241455078125	1655.896362304688	414.2165222167969	-1247.7333984375	961.6251831054688	181.6392974853516	-1267.140625	964.0247192382812	522.7202758789062	-1142.453002929688	981.4816284179688	497.2459411621094	-1132.913818359375	972.5127563476562	227.9521789550781	-1164.201782226562	501.3239135742188	230.3544006347656	-1199.3642578125	640.7874755859375	194.4720764160156	-1312.610229492188	54.63848114013672	218.38427734375	-1245.248168945312	263.7613830566406	209.7718353271484	-1106.454956054688	46.18335342407227	207.1237030029297	-1151.781616210938	43.67439651489258	265.2190246582031	-1213.45166015625	45.99588775634766	171.6137237548828	-1358.728393554688	50.17358016967773	297.9834899902344	-1182.730102539062	519.5460205078125	501.3181762695312	-1180.771728515625	790.2827758789062	528.3997192382812	-1300.536376953125	45.6429443359375	500.1050109863281	-1209.51123046875	397.1662902832031	508.1053161621094	-1082.614135742188	43.25789642333984	479.4733276367188	-1141.15234375	49.6566276550293	435.0251770019531	-1178.566162109375	48.35242080688477	523.7578125	-1342.6689453125	48.16680145263672	440.2201843261719	
2	0.01	-1337.13818359375	1033.988037109375	446.6140441894531	-1351.146118164062	1025.322509765625	271.7100830078125	-1340.51806640625	1084.8408203125	351.600830078125	-1094.019287109375	1287.360107421875	349.7544555664062	-1361.03125	1219.630737304688	345.8403015136719	-1304.36181640625	1487.258911132812	340.0963745117188	-1123.484252929688	1401.328125	346.2714233398438	-1366.067504882812	1349.1162109375	416.5455627441406	-1324.166259765625	1448.122802734375	238.9330444335938	-1219.724243164062	1452.307006835938	168.3684997558594	-1232.927978515625	1324.056274414062	92.00287628173828	-1208.618286132812	1109.164916992188	76.03083038330078	-1273.450927734375	1094.38818359375	159.8808441162109	-1111.20361328125	874.15185546875	144.0182952880859	-1169.628784179688	859.5590209960938	85.14924621582031	-1185.215698242188	1000.415405273438	70.84915924072266	-1096.92333984375	688.580078125	164.8600921630859	-1134.351196289062	780.6080322265625	91.5179443359375	-1082.941162109375	793.7431030273438	139.2525634765625	-1243.4951171875	1454.051513671875	517.2236938476562	-1256.638305664062	1386.71533203125	581.1062622070312	-1290.385375976562	1122.818969726562	613.3461303710938	-1269.467041015625	1099.710205078125	517.4517822265625	-1143.796875	871.5531005859375	583.7548217773438	-1216.966064453125	855.8506469726562	630.1964721679688	-1277.479614257812	1042.75732421875	621.3643188476562	-1135.288452148438	684.12158203125	567.7240600585938	-1118.977783203125	772.0431518554688	584.651611328125	-1176.51123046875	768.34619140625	635.2999267578125	-1273.02978515625	1665.96484375	276.2406005859375	-1104.167724609375	1702.533081054688	405.5380249023438	-1099.16455078125	1705.301147460938	279.7987060546875	-1269.192260742188	1655.9208984375	414.1678771972656	-1247.706298828125	961.6217041015625	181.6136779785156	-1267.179565429688	964.0196533203125	522.7001342773438	-1142.491577148438	981.4763793945312	497.2457885742188	-1132.885009765625	972.5057983398438	227.9513702392578	-1164.170532226562	501.3174438476562	230.3741760253906	-1199.32421875	640.7794189453125	194.4730987548828	-1312.609252929688	54.63991928100586	218.3847045898438	-1245.231323242188	263.7557678222656	209.7676849365234	-1106.43603515625	46.17339706420898	207.1367645263672	-1151.7783203125	43.67302322387695	265.2213745117188	-1213.447021484375	45.99223327636719	171.6173553466797	-1358.747436523438	49.80046081542969	298.2146301269531	-1182.706420898438	519.5384521484375	501.3157348632812	-1180.796875	790.3004760742188	528.4085693359375	-1300.538940429688	45.64717102050781	500.1046447753906	-1209.505249023438	397.1532897949219	508.1007080078125	-1082.611694335938	43.25242233276367	479.4688415527344	-1141.152587890625	49.65520095825195	435.0205383300781	-1178.5634765625	48.35014724731445	523.7605590820312	-1342.668823242188	48.16078567504883	440.2273864746094	
3	0.02	-1337.122192382812	1033.963012695312	446.5700378417969	-1351.13134765625	1025.31982421875	271.6637268066406	-1340.509887695312	1084.860717773438	351.5522155761719	-1093.930419921875	1287.34423828125	349.7380676269531	-1360.971557617188	1219.65380859375	345.78466796875	-1304.256225585938	1487.273193359375	340.0298156738281	-1123.431762695312	1401.325805664062	346.2542114257812	-1366.042114257812	1349.147216796875	416.4794006347656	-1324.069702148438	1448.132080078125	238.8512573242188	-1219.5556640625	1452.296997070312	168.3325500488281	-1232.803955078125	1324.044189453125	91.95841217041016	-1208.550170898438	1109.13916015625	76.04879760742188	-1273.399291992188	1094.399780273438	159.8857727050781	-1111.221801757812	874.097412109375	144.0523071289062	-1169.7080078125	859.52685546875	85.18496704101562	-1185.201171875	1000.369995117188	70.87940216064453	-1096.661254882812	688.5767211914062	165.0351409912109	-1134.455688476562	780.5477905273438	91.59255218505859	-1083.131958007812	793.4872436523438	139.5790710449219	-1243.483276367188	1454.048706054688	517.1865844726562	-1256.6201171875	1386.714965820312	581.0413208007812	-1290.339233398438	1122.813598632812	613.255126953125	-1269.439453125	1099.732055664062	517.3499755859375	-1143.733520507812	871.6143188476562	583.61572265625	-1216.87646484375	855.8403930664062	629.9979248046875	-1277.447387695312	1042.747314453125	621.2637939453125	-1135.017822265625	684.225341796875	567.5703125	-1118.74169921875	772.1732177734375	584.51513671875	-1176.382690429688	768.3115234375	635.099853515625	-1272.941162109375	1665.92626953125	276.1405334472656	-1104.080200195312	1702.542724609375	405.4231567382812	-1099.091674804688	1705.293212890625	279.6790466308594	-1269.13232421875	1655.946899414062	414.1093139648438	-1247.672485351562	961.6166381835938	181.5854797363281	-1267.223876953125	964.0136108398438	522.6769409179688	-1142.532348632812	981.47021484375	497.2456970214844	-1132.84912109375	972.4969482421875	227.9501647949219	-1164.13671875	501.3078308105469	230.3963165283203	-1199.279907226562	640.7706298828125	194.471923828125	-1312.609008789062	54.64255905151367	218.3838195800781	-1245.212768554688	263.7495422363281	209.761962890625	-1106.418579101562	46.16333770751953	207.1492004394531	-1151.775390625	43.67170333862305	265.2234802246094	-1213.442504882812	45.98878860473633	171.6206512451172	-1358.769653320312	49.45673751831055	298.4268798828125	-1182.677124023438	519.531005859375	501.3104858398438	-1180.797485351562	790.3223266601562	528.4278564453125	-1300.541381835938	45.652099609375	500.1027526855469	-1209.4951171875	397.1384887695312	508.0940551757812	-1082.609497070312	43.24609756469727	479.4646301269531	-1141.15283203125	49.65394592285156	435.0164489746094	-1178.560180664062	48.34864807128906	523.7620849609375	-1342.669677734375	48.15905380249023	440.2304077148438	
4	0.03	-1337.105590820312	1033.934692382812	446.52294921875	-1351.111450195312	1025.316284179688	271.6135559082031	-1340.500610351562	1084.8828125	351.49658203125	-1093.834716796875	1287.32275390625	349.7221069335938	-1360.904174804688	1219.6796875	345.7212829589844	-1304.133178710938	1487.288452148438	339.9546508789062	-1123.369140625	1401.323608398438	346.2387390136719	-1366.0146484375	1349.181274414062	416.4012145996094	-1323.957885742188	1448.140258789062	238.7592468261719	-1219.36181640625	1452.2841796875	168.2958679199219	-1232.661010742188	1324.02978515625	91.90761566162109	-1208.474487304688	1109.10986328125	76.06240081787109	-1273.344970703125	1094.413696289062	159.8797454833984	-1111.243041992188	874.0364990234375	144.0869598388672	-1169.790771484375	859.4877319335938	85.22014617919922	-1185.184204101562	1000.317260742188	70.9078369140625	-1096.133666992188	688.5963745117188	165.3596496582031	-1134.58837890625	780.4783325195312	91.66412353515625	-1083.355346679688	793.22900390625	139.8892211914062	-1243.469116210938	1454.044921875	517.1463623046875	-1256.598754882812	1386.7119140625	580.9667358398438	-1290.291015625	1122.802978515625	613.1527099609375	-1269.408569335938	1099.75390625	517.238037109375	-1143.657348632812	871.6812133789062	583.45654296875	-1216.7529296875	855.8226318359375	629.79345703125	-1277.414794921875	1042.726196289062	621.1466064453125	-1134.741088867188	684.3225708007812	567.376220703125	-1118.435302734375	772.322998046875	584.3428955078125	-1176.234619140625	768.267333984375	634.8692016601562	-1272.847290039062	1665.880859375	276.0372314453125	-1103.9853515625	1702.551879882812	405.3006286621094	-1099.005249023438	1705.280639648438	279.5503234863281	-1269.064697265625	1655.971435546875	414.0444641113281	-1247.634399414062	961.610107421875	181.5565643310547	-1267.270629882812	964.0069580078125	522.6520385742188	-1142.572021484375	981.4635620117188	497.2455139160156	-1132.807739257812	972.48681640625	227.9488372802734	-1164.104370117188	501.2952880859375	230.4183044433594	-1199.234130859375	640.76171875	194.4685363769531	-1312.609497070312	54.64576721191406	218.3818206787109	-1245.194091796875	263.7432556152344	209.7546081542969	-1106.40625	46.15495681762695	207.1586761474609	-1151.773193359375	43.67058563232422	265.2250366210938	-1213.438598632812	45.98583602905273	171.6231231689453	-1358.793701171875	49.18362808227539	298.5943908691406	-1182.643676757812	519.524169921875	501.3016662597656	-1180.782958984375	790.3439331054688	528.462158203125	-1300.542846679688	45.65742874145508	500.0997009277344	-1209.480346679688	397.1238403320312	508.0852661132812	-1082.60693359375	43.23976516723633	479.4611206054688	-1141.152709960938	49.65345764160156	435.0138244628906	-1178.556884765625	48.34816360473633	523.7618408203125	-1342.6708984375	48.16320037841797	440.2269897460938	
